<svg width="460" height="460" viewBox="0 0 460 460" fill="none" xmlns="http://www.w3.org/2000/svg">
<path d="M144.662 147.49C144.783 147.871 144.906 148.251 145.029 148.631C116.16 216.487 141.82 296.772 207.301 334.577C226.113 345.438 246.318 351.701 266.615 353.712L131.426 353.574C84.5233 353.526 55.2202 302.771 78.6301 262.128L144.662 147.49Z" fill="url(#paint0_linear_2_30)"/>
<path d="M348.596 207.425C348.205 207.339 347.814 207.255 347.423 207.172C303.093 148.242 220.733 130.322 155.252 168.127C136.44 178.989 120.913 193.356 109.023 209.928L176.737 92.9192C200.23 52.3243 258.838 52.3244 282.33 92.9195L348.596 207.425Z" fill="url(#paint1_linear_2_30)"/>
<path d="M195.249 354.178C195.519 353.883 195.786 353.586 196.054 353.288C269.253 344.362 325.953 281.997 325.953 206.387C325.953 184.664 321.273 164.034 312.866 145.451L380.342 262.597C403.752 303.24 374.448 353.996 327.545 354.043L195.249 354.178Z" fill="url(#paint2_linear_2_30)"/>
<defs>
<linearGradient id="paint0_linear_2_30" x1="217.666" y1="200.37" x2="98.6658" y2="369.369" gradientUnits="userSpaceOnUse">
<stop stop-color="white"/>
<stop offset="1" stop-color="#21A7E6"/>
</linearGradient>
<linearGradient id="paint1_linear_2_30" x1="94.666" y1="99.8689" x2="361.168" y2="129.368" gradientUnits="userSpaceOnUse">
<stop stop-color="#33AFE9"/>
<stop offset="0.5" stop-color="#B5E8FF"/>
<stop offset="1" stop-color="#21A7E6"/>
</linearGradient>
<linearGradient id="paint2_linear_2_30" x1="415.166" y1="145.37" x2="245.166" y2="371.87" gradientUnits="userSpaceOnUse">
<stop stop-color="#33AFE9"/>
<stop offset="0.432758" stop-color="#B5E8FF"/>
<stop offset="1" stop-color="#33AFE9"/>
</linearGradient>
</defs>
</svg>
